<svg id="Layer_1" data-name="Layer 1" xmlns="http://www.w3.org/2000/svg" viewBox="0 0 598.38 157.03"><defs><style>.cls-1{isolation:isolate;}.cls-2{fill:none;}.cls-2,.cls-3{stroke:#000;stroke-miterlimit:10;}.cls-3{stroke-width:0.25px;}</style></defs><g class="cls-1"><path d="M19.25,118.4c-6.37,0-10-3.6-10-10V29.22A10.17,10.17,0,0,1,19.39,19.11a10,10,0,0,1,10,10.11v71h33a9.1,9.1,0,0,1,9.14,9,9.22,9.22,0,0,1-9.14,9.14Z"/><path d="M153.15,55V109.4c0,6.51-5.12,9.83-10,9.83s-10-3.32-10-9.83v-1.11c-4.57,7.34-11.91,11.63-22.29,11.63-15.1,0-29.22-9.55-29.22-31.71V55.39c0-6.92,5.12-10.38,10-10.38s9.83,3.46,9.83,10.38V85.16c0,14,7.9,17.87,15.51,17.87,9.42,0,16.2-6,16.2-18.28V55c0-6.51,5-9.84,10-9.84S153.15,48.47,153.15,55Z"/><path d="M239.56,76.16v33a10,10,0,1,1-19.94,0V79.21c0-14-7.89-17.86-15.37-17.86-9.41,0-16.2,5.95-16.34,18.41V109.4c0,6.51-5,9.83-9.83,9.83s-10-3.32-10-9.83V55c0-6.51,5-9.84,10-9.84s9.83,3.19,9.83,9.84v1.24c4.57-7.47,11.91-11.77,22.3-11.77C225.44,44.45,239.56,54.15,239.56,76.16Z"/><path d="M324.31,79.21c0,5.82-3.74,8.72-9.69,8.72h-45c.83,9.14,9,15.65,19.11,15.65a19.35,19.35,0,0,0,15.51-7.2,8,8,0,0,1,6.37-3.18,8.23,8.23,0,0,1,6,14.12,36.64,36.64,0,0,1-28,12.46c-22.29,0-38.49-15-38.49-37.39,0-21.74,15.51-37.94,37.25-37.94s34.48,14,36.83,32.68A10.45,10.45,0,0,1,324.31,79.21Zm-54.7-4.29H305.2c-.83-8.73-8.17-14.68-17.86-14.68S270.17,66.19,269.61,74.92Z"/><path d="M371.12,45.7c6.09,0,8.86,3.74,8.86,7.75,0,4.43-3.19,9.14-10.67,9.56-9.27.55-13.84,5.54-13.84,14v32.55c0,6.5-5,9.83-9.83,9.83a9.59,9.59,0,0,1-9.84-9.83V54.84a9.84,9.84,0,0,1,19.67,0V55c2.91-4.85,7.06-8.31,13.57-9.14A10.35,10.35,0,0,1,371.12,45.7Z"/></g><circle class="cls-2" cx="426.94" cy="86.85" r="25.14"/><circle class="cls-2" cx="500.09" cy="86.85" r="25.14"/><circle cx="573.24" cy="86.85" r="25.14"/><circle class="cls-3" cx="495.23" cy="87.14" r="20.57"/></svg>